# xmcd
#
# Track frame offsets:
# 200
# 19302
# 33102
# 51512
# 67402
# 70855
# 86752
# 102652
# 116287
# 126890
# 140122
#
# Disc length: 2034 seconds
#
#
# Revision: 0
# Processed by: cddbd v1.5.1PL2 Copyright (c) Steve Scherf et al.
# Submitted via: FreeRIP 2.945 
#
DISCID=a907f00b
DTITLE=Vern Gosdin - The Gospel Album
DYEAR=1999
DGENRE=Gospel
TTITLE0=Jesus Hold My Hand
TTITLE1=The Other Side Of Life
TTITLE2=I'll Fly Away
TTITLE3=Jesus, Don't Turn Me Away
TTITLE4=Jesus Hold My Hand (Reprise)
TTITLE5=If Jesus Comes Tomorrow (What Then)
TTITLE6=Praying
TTITLE7=Love Rolled Away The Stone
TTITLE8=I'm Gonna Be Movin'
TTITLE9=Impossible Dream
TTITLE10=Toe To Toe With The Devil
EXTD=V G M Records
EXTT0=
EXTT1=
EXTT2=
EXTT3=
EXTT4=
EXTT5=
EXTT6=
EXTT7=
EXTT8=
EXTT9=
EXTT10=
PLAYORDER=
